<svg id="Layer_1" data-name="Layer 1" xmlns="http://www.w3.org/2000/svg" width="8in" height="8in" viewBox="0 0 576 576"><title>Artboard 1</title><path d="M336.3,85.4a165.5,165.5,0,0,0-28.3,2.4v45.9a98.8,98.8,0,0,1,26.4-3.5,100.2,100.2,0,0,1,26.7,3.4V87.3A158.8,158.8,0,0,0,336.3,85.4ZM307.9,286.8v44.3c0,2.7,0,5.3-.1,7.9l8.6,2.6c14.8,4.8,29.7,9.4,43.6,14.8.9-11.2,1.1-23,1.1-35.5V306.1C341.2,299.3,323.3,293.3,307.9,286.8ZM238.8,434.9c-7.9.5-15.8.6-24.3-1.2l-2.4-.6-2.2-.6-3.4-1-2.5-.9a90,90,0,0,1-17.8-9.3h-.1l-.3-.2v14.7a166.5,166.5,0,0,0,6.6,41.8,136.4,136.4,0,0,0,58.8,2.7C245,468,240.6,453.1,238.8,434.9Z" fill="#fff"/></svg>