<svg id="Layer_1" data-name="Layer 1" xmlns="http://www.w3.org/2000/svg" width="8in" height="8in" viewBox="0 0 576 576"><title>Artboard 1</title><path d="M307.6,0V66a132.8,132.8,0,0,1,53.1,1.2V0Zm0,153.3V266l53.1,20.4V154.7A74,74,0,0,0,307.6,153.3Zm-1,204.7a125.1,125.1,0,0,1-7.3,33.3c-5.7,16.2-19.9,32.3-42.8,39.9,1.7,13.5,5.8,30.8,15.6,44a138.8,138.8,0,0,0,36.8-17.9c17.3-12.2,30.8-29.5,39.1-46.7a143.5,143.5,0,0,0,9.3-33.1ZM167.3,409.6c-8.1-9.1-12.6-22.4-14-36.9-.6-3.8-1.3-6.4-1.3-9.6H95a125,125,0,0,0,3.8,22.4c10.9,47.6,40.1,73.1,71.4,85.8C168.2,454.6,164.4,433.1,167.3,409.6Z" fill="#fff"/></svg>