<svg id="Layer_1" data-name="Layer 1" xmlns="http://www.w3.org/2000/svg" width="8in" height="8in" viewBox="0 0 576 576"><title>Artboard 1</title><path d="M290.6,140.5V91.8c-53.4,15.4-96.2,58.4-95.2,124.3,0,71.7,52.9,101.6,93.7,116.6l1.3-54.2c-27.3-14.6-42.9-33.4-42.5-66.9S265.1,153.7,290.6,140.5Zm87.6-49.5v49.6c27.1,15.5,36,45.3,40.1,67.1h52.5C464.9,139,423.6,103.8,378.1,91.1ZM378,312.4l-1.3,51.2c29.8,14.5,51.8,35.9,51.8,77.2,0,52.5-45.5,90.3-94.8,90.3-19.6,0-51.8-2.4-73.3-30.8-12.3,1.5-32.8,2.2-62.6-2.5,22.9,54.3,75.8,78.2,136.6,78.2C422.7,576,481,514.5,481,437,481,357.6,422.3,329.8,378,312.4Z" fill="#fff"/></svg>